<svg width="112" height="112" viewBox="0 0 112 112" fill="none" xmlns="http://www.w3.org/2000/svg">
<path d="M71.0803 42.0237C71.1151 42.1327 72.4555 43.0604 72.8034 43.5474C75.7463 47.6359 72.1981 55.043 67.2423 55.1358C66.8179 55.1427 65.6861 54.7555 65.5215 54.9016C65.4334 54.9781 65.0716 56.6571 64.8606 57.1395C62.6412 62.2066 58.439 65.8082 53.4507 67.9927C53.075 68.1574 49.6358 68.9366 50.4382 69.7343C55.0068 70.0428 59.1162 72.2181 62.5021 75.1819L64.9325 78.083C65.5006 76.7449 67.3188 75.3303 67.5507 73.9713C67.9496 71.6174 65.5609 69.7761 68.4157 67.6518C72.0659 64.9339 84.7443 65.3791 89.2178 66.3276C91.6203 66.8378 94.489 67.7585 94.0252 70.7663C93.9301 71.3878 93.464 71.9444 93.3666 72.6541C93.0002 75.3117 94.8926 76.1025 95.8666 78.2291C97.3577 81.4828 97.1119 85.6084 95.695 88.8435C97.1908 89.843 99.1782 90.3996 100.078 92.1088C103.508 98.6184 90.7507 100.919 86.7039 101.473C79.6678 102.438 66.6347 101.993 60.8045 97.5238C56.5026 94.2261 60.4079 89.53 64.5823 88.9734C64.4501 87.51 63.7752 86.1905 63.6662 84.6901C63.5874 83.5792 64.028 81.5176 63.8448 80.8102C63.701 80.2583 61.5234 77.6633 61.0016 77.1507C59.4618 75.6364 55.4521 73.0019 53.3348 72.7538C52.8246 72.6935 52.9869 72.9463 52.9962 73.3243C53.0565 75.3581 53.8334 79.8988 54.1812 82.1136C54.7401 85.6571 56.1687 89.9915 56.2475 93.5164C56.2916 95.5155 54.5523 95.9306 54.0351 94.5531L52.5301 85.2745C49.8817 85.6246 47.1985 85.4762 44.52 85.4971C40.9486 85.5249 37.2497 85.6339 33.6203 85.5156C32.5651 85.4809 31.4103 85.0588 30.2762 85.2861L28.1357 94.8569C27.5235 95.9306 25.9303 95.4088 25.928 94.2516C25.9256 92.7024 27.0597 88.9711 27.4516 87.2178C28.0638 84.4883 28.4674 82.6701 28.9033 79.8571C29.2929 77.3386 29.671 74.8131 30.0327 72.2923C21.2249 73.9597 16.1276 80.6665 13.8665 88.9386C13.5372 90.1399 13.3539 92.5517 12.9806 93.3866C12.5863 94.2725 11.3433 94.3954 10.8146 93.4817C10.3183 92.6236 11.0094 89.9636 11.2668 88.8876C13.7644 78.4494 20.4016 71.4018 31.1041 69.5326C31.8462 69.4027 32.869 69.8549 33.0475 68.925C33.3351 67.4222 32.9316 67.8095 32.0364 67.3898C28.9289 65.938 25.9488 63.6259 24.0495 60.7642C23.6112 60.1032 22.3009 57.1209 22.1224 57.0073C21.851 56.8333 20.8817 57.2276 20.4132 57.2299C15.7519 57.2322 12.918 52.7634 14.1911 48.4429C14.4439 47.5849 15.8678 45.5789 15.8771 45.2728C15.891 44.8345 15.0005 43.501 14.7825 42.8957C12.8159 37.3972 13.3006 30.1663 17.5028 25.7833C17.9016 25.3658 19.7917 24.0648 19.8265 23.9187C19.8891 23.6567 19.2861 23.1674 19.1818 22.7267C18.2379 18.7611 23.1868 17.4207 26.081 18.9443C28.7642 12.7246 39.098 8.02381 45.3154 10.969C46.8831 11.7111 48.2212 13.2139 48.3557 15.0065C49.2741 14.8558 50.3223 14.5821 51.243 14.5311C54.6543 14.3456 63.3764 14.5566 65.9598 16.7621C67.1193 17.7523 67.4463 19.058 66.9848 20.5329C66.7807 21.1869 66.2195 21.384 66.2103 21.9591C71.129 23.7796 75.5005 30.9594 74.4569 36.1217C74.0371 38.1996 71.6044 39.6119 71.5209 37.1537C71.4908 36.2516 71.9221 35.9965 72.0195 35.3077C72.6202 31.0963 68.6291 25.2336 64.6495 23.8677C63.708 23.5454 61.1779 23.5732 61.9177 21.9638C62.3977 20.9179 64.7678 21.2657 64.6078 19.2875C64.5081 18.0677 62.1936 17.7871 61.1593 17.6155C56.113 16.7853 52.4025 17.365 47.5301 17.5598C44.673 17.6735 46.6025 15.7231 45.6749 14.3131C45.1647 13.5362 43.7315 12.9286 42.8456 12.7385C37.4538 11.5743 30.7099 15.417 27.9803 20.025C27.5768 20.7045 27.8319 21.551 26.7907 21.864C25.4827 22.256 25.2091 20.9967 24.1052 20.8158C23.0013 20.6349 20.6776 21.0895 21.7049 22.5203C22.2082 23.2207 23.9544 22.8728 23.7318 24.3454C23.5648 25.4447 22.4517 25.28 21.756 25.6302C16.4383 28.2925 15.4087 35.4608 16.6981 40.7482C16.8094 41.2005 17.5607 43.5868 17.7787 43.7236C18.1962 43.988 19.3116 43.5729 19.8798 43.5938C20.7402 43.6239 21.5704 43.981 22.3775 44.2269C22.8019 43.9161 24.2049 38.0674 24.8195 37.4946C25.3041 37.0401 26.8741 37.6152 26.7791 38.7492C26.5796 41.1564 24.2698 44.2385 23.7851 46.6758C21.7304 48.48 21.6609 45.3609 19.0055 46.3047C14.8776 47.7727 15.8145 55.0592 20.4016 54.9062C21.4475 54.8714 22.1687 54.0342 22.7392 53.9693C24.0542 53.8232 23.8222 54.9595 24.191 55.7527C31.1598 70.7617 54.6752 71.4296 62.1171 56.947C62.5902 56.0286 63.8518 52.3367 64.2228 52.0955C65.4519 51.2954 65.9621 52.5315 66.1384 52.5709C69.1184 53.2504 71.9963 49.301 71.4421 46.532C71.0594 44.6188 69.5706 43.4616 67.611 44.1202C66.6323 44.4495 65.2409 48.0696 64.1834 45.4374C63.6709 44.1596 63.5294 41.1587 63.1259 39.5377C62.8778 38.5451 62.5206 37.5642 62.2539 36.5786C58.1213 37.1421 53.6107 35.1964 50.7861 32.1654C50.4707 38.2344 42.9036 37.0795 39.7636 33.9116C39.1142 33.2553 38.8406 32.2836 38.0358 31.7572C37.4607 31.7131 35.4408 35.0109 34.7822 35.6417C32.5837 37.7497 29.2141 38.9811 26.568 36.9032C24.6641 35.4074 25.9233 33.5545 27.4841 34.3662C27.9734 34.6213 27.8319 35.3587 28.087 35.4283C30.9372 36.2098 33.5832 33.573 34.9955 31.4511C35.5266 30.6533 36.8438 27.5527 37.0456 27.3579C37.463 26.9614 38.7895 26.9544 39.0933 27.4507C39.3716 27.9029 39.4319 29.1575 39.7983 29.9367C40.8605 32.1932 44.0886 34.2525 46.6118 34.0345C50.5125 33.6983 46.6489 28.2415 49.8585 28.2415C50.6423 28.2415 52.6274 30.658 53.4785 31.3328C55.2503 32.7405 57.8083 34.0206 60.0902 34.227C61.477 34.3522 63.977 33.4339 64.4802 34.9413L65.9784 42.142L68.7497 41.4347C68.8865 40.2172 68.1305 36.4835 70.2524 36.7989C70.5029 36.836 71.078 37.2279 71.078 37.3856C71.078 38.3271 70.8855 41.4208 71.078 42.0237H71.0803ZM91.0243 69.5048C89.0485 67.9765 79.909 67.9603 77.2143 68.1017C75.8437 68.1736 69.9045 68.8137 69.3387 69.9663C68.9514 70.7547 69.7724 71.7079 69.893 72.661C70.3359 76.1512 67.1309 77.9253 66.3193 81.3251C65.5053 84.7364 66.8828 89.4534 69.8419 91.4988C73.8122 94.2423 86.8129 94.4673 90.644 91.5035C93.7377 89.1102 95.2219 84.0593 93.9881 80.3395C93.3527 78.4239 91.0777 76.2069 90.8365 74.4282C90.7924 74.0942 90.9571 71.8331 91.029 71.52C91.08 71.2974 91.4858 71.5942 91.4882 70.6643C91.4882 69.9709 91.5716 69.9268 91.0243 69.5048ZM48.3557 69.5048C43.9588 69.957 39.6012 69.9918 35.3712 68.5771C35.2854 70.7431 33.7664 71.3229 35.246 73.2222C38.1379 76.9304 45.3757 76.9907 48.1215 73.1016C48.9865 71.8749 48.1169 70.9264 48.3557 69.5048ZM50.6702 73.6814C47.0223 79.4559 38.8498 79.8965 33.9682 75.4277L32.3541 73.2199C31.677 76.4133 31.234 79.6855 31.1899 82.96H51.832L50.6678 73.6837L50.6702 73.6814ZM65.6769 90.8866C65.3105 90.8913 63.214 91.9186 62.8035 92.1876C58.5921 94.9473 65.0391 97.0855 67.3211 97.7325C74.6123 99.8035 82.6548 99.9356 90.055 98.3355C94.3893 97.3986 103.332 94.3907 94.3754 91.0837C93.951 91.1069 92.592 92.997 91.9311 93.4863C87.2442 96.9626 74.0302 97.0043 69.0627 94.1333C68.1235 93.5907 66.1291 90.8797 65.6769 90.8866Z" fill="#151515"/>
<path d="M49.7939 55.179C51.2155 54.3488 52.2776 56.0835 50.9001 57.788C48.1172 61.2248 41.4267 61.4057 38.3748 58.268C37.7974 57.6743 36.603 55.9884 37.6118 55.3414C38.9894 54.4578 39.4045 55.9003 40.237 56.6354C42.3103 58.4675 45.3993 58.5347 47.7833 57.2198C48.7063 56.7096 49.5388 55.3251 49.7939 55.1767V55.179Z" fill="#151515"/>
<path d="M22.7773 87.6327C24.6766 87.0599 24.2197 89.5668 24.2475 90.7356C23.7675 91.8951 24.4284 94.5574 23.4428 95.2648C22.8677 95.6776 21.9424 95.5616 21.7337 94.8543C21.5064 94.0867 21.903 88.7273 22.2786 88.071C22.3992 87.86 22.5384 87.7069 22.7773 87.6327Z" fill="#151515"/>
<path d="M54.0912 44.9645C56.51 44.4612 57.3217 48.1856 55.1649 49.3011C52.28 50.7923 51.1437 45.579 54.0912 44.9645Z" fill="#151515"/>
<path d="M33.5841 45.4612C36.0841 43.2442 38.1272 48.1768 35.829 49.2112C33.2246 50.3823 31.7659 47.073 33.5841 45.4612Z" fill="#151515"/>
<path d="M96.5215 56.0906C97.5442 55.7775 98.182 56.5127 97.9338 57.5006C97.8735 57.7395 95.6658 61.4685 95.4385 61.7376C94.4691 62.8901 93.2586 62.1156 93.6876 60.4505C93.8407 59.8591 96.0531 56.2321 96.5215 56.0883V56.0906Z" fill="#151515"/>
<path d="M102.794 60.9819C103.379 61.5732 103.061 62.3084 102.504 62.7815C102.029 63.185 99.144 64.9614 98.6083 65.1562C97.4464 65.5759 96.8713 64.1265 97.5206 63.3612C97.7502 63.0899 101.31 60.8845 101.693 60.7917C102.075 60.6989 102.518 60.7059 102.794 60.9842V60.9819Z" fill="#151515"/>
<path d="M104.42 69.9152C103.85 70.4857 99.6938 70.1054 99.3575 69.5836C97.8942 67.3109 102.922 67.7515 104.072 68.1689C104.81 68.4356 104.907 69.4259 104.418 69.9152H104.42Z" fill="#151515"/>
<path d="M89.4015 70.4323L90.3291 71.8237C90.2039 72.3339 89.6148 72.5032 89.1765 72.6423C85.4985 73.8111 76.7115 73.7462 72.9291 72.8766C70.9927 72.4313 69.6221 71.4967 72.1198 70.416C77.8757 71.2833 83.6479 71.2207 89.4038 70.4346L89.4015 70.4323Z" fill="#151515"/>
</svg>
