<svg width="236" height="238" viewBox="0 0 236 238" fill="none" xmlns="http://www.w3.org/2000/svg">
<path d="M165.961 116.501C176.759 113.374 196.002 105.458 192.735 92.2008C189.772 80.2998 169.643 80.881 159.731 82.7353C154.11 83.7871 148.766 85.8075 143.533 87.8832C147.437 79.0267 150.511 70.6129 149.846 60.843C148.988 48.0287 138.411 42.438 126.145 48.9697C115.319 54.7265 108.314 67.7899 104.798 78.4731L101.558 73.5743C95.4948 63.9428 80.2388 54.505 69.0528 63.1125C57.3132 72.1351 65.2319 89.9036 72.0708 99.5628H64.1244C63.4045 99.5628 60.608 100.255 59.6943 100.476C42.9708 104.517 34.7475 120.182 52.1632 129.73C59.3621 133.661 68.0284 135.183 76.2794 135.875L71.0187 143.347C68.3329 146.862 66.644 150.876 66.0072 154.861C64.069 166.651 71.1571 177.943 87.9914 173.404C94.7195 171.605 97.0176 168.672 102.112 165.101C102.417 164.88 102.5 164.576 103.026 164.686C102.749 174.511 107.29 188.82 120.303 188.82C135.836 188.82 142.287 168.533 142.066 156.937C151.646 164.492 172.301 172.048 180.995 159.732C182.103 158.182 182.878 156.522 183.404 154.861C186.782 143.873 178.475 130.976 170.28 123.559C167.982 121.483 165.296 119.85 162.887 117.94C162.749 117.829 162.057 117.719 162.5 117.304C162.638 117.193 165.407 116.722 166.044 116.556L165.961 116.501Z" fill="#FFBF00"/>
<path d="M129.882 103.41C129.578 110.302 137.247 116.28 144.308 112.543C145.913 127.793 123.846 129.177 122.739 114.592C122.351 109.693 124.981 105.264 129.91 103.41H129.882Z" fill="white"/>
<path d="M93.2516 109.224C93.0578 116.641 100.589 121.512 107.954 118.081C109.255 132.472 89.2923 134.299 86.9665 122.066C85.9697 116.89 87.9078 111.549 93.2516 109.196V109.224Z" fill="white"/>
<path d="M107.954 118.079C100.561 121.484 93.0298 116.613 93.2514 109.223C100.81 105.902 107.317 110.994 107.954 118.079Z" fill="black"/>
<path d="M144.28 112.543C137.22 116.252 129.55 110.274 129.855 103.41C137.663 100.476 143.533 105.486 144.28 112.543Z" fill="black"/>
<path d="M122.269 134.769C125.675 133.8 125.564 137.841 124.788 139.861C122.933 144.566 116.787 144.705 113.824 140.802C112.717 139.363 111.775 135.793 114.433 135.544C117.285 135.295 116.51 138.948 118.669 139.363C121.909 139.972 120.275 135.322 122.269 134.769Z" fill="black"/>
<path d="M14.1216 178.773L29.4053 168.561L31.3435 171.439L24.1723 176.227L24.2831 176.393L35.109 177.057L37.4902 180.6L37.3241 180.711L25.8336 179.825L22.6495 191.062L22.4833 191.172L20.0468 187.519L23.0094 177.223L22.8987 177.057L16.0874 181.596L14.1493 178.718L14.1216 178.773Z" fill="white"/>
<path d="M31.3716 201.246L43.9696 187.878L52.4421 195.877L50.1994 198.257L44.2464 192.638L36.1339 201.218L42.0868 206.837L39.8441 209.217L31.3716 201.218V201.246ZM37.9613 197.067L40.204 194.686L46.683 200.803L44.4403 203.183L37.9613 197.067Z" fill="white"/>
<path d="M51.4448 217.907L60.8587 202.104L66.424 205.425C67.4484 206.034 68.2237 206.781 68.7774 207.694C69.3312 208.608 69.6358 209.549 69.6635 210.6C69.6912 211.624 69.4143 212.648 68.8328 213.617C68.2514 214.613 67.4761 215.333 66.5624 215.804C65.621 216.274 64.6519 216.468 63.5721 216.412C62.52 216.357 61.4678 216.025 60.4711 215.416L56.5671 213.091L58.256 210.268L62.2431 212.648C62.7692 212.953 63.2399 213.119 63.7383 213.119C64.209 213.119 64.6243 213.008 65.0119 212.787C65.3718 212.565 65.6764 212.261 65.9256 211.873C66.1471 211.486 66.2855 211.098 66.2855 210.656C66.2855 210.24 66.2025 209.798 65.9533 209.383C65.7318 208.967 65.3441 208.608 64.8458 208.303L62.1877 206.726L54.4628 219.706L51.4725 217.935L51.4448 217.907Z" fill="white"/>
<path d="M71.8511 228.951L84.1168 213.618L87.9101 214.864L88.7407 234.486L85.1136 233.296L84.8367 220.371L84.8921 218.074L84.6983 218.019L83.3693 219.901L75.5059 230.141L71.8787 228.951H71.8511ZM76.6965 225.907L78.7454 223.222L82.4556 224.44L81.4588 227.457L76.6965 225.907ZM81.4588 227.484L82.4556 224.467L86.5257 225.796L86.6087 229.173L81.4588 227.484Z" fill="white"/>
<path d="M102.529 237.087L103.388 218.737L107.845 218.959L112.109 232.077H112.303L117.785 219.429L122.271 219.651L121.412 238L117.979 237.834L118.422 228.784L118.782 225.74H118.588L113.355 237.613L110.67 237.474L106.544 225.158H106.35L106.406 228.203L105.963 237.253L102.557 237.087H102.529Z" fill="white"/>
<path d="M139.88 236.09C139.41 236.201 139.022 236.256 138.69 236.256C138.358 236.256 138.025 236.256 137.721 236.173L137.084 233.157C137.499 233.184 137.859 233.212 138.164 233.184C138.468 233.184 138.745 233.129 138.994 233.073C139.382 232.99 139.742 232.797 140.047 232.492C140.379 232.188 140.573 231.828 140.656 231.385L140.849 230.278L131.353 218.654L135.229 217.824L141.597 225.767L141.791 225.711L143.424 216.052L147.079 215.277L144.006 231.662C143.84 232.492 143.591 233.184 143.231 233.793C142.871 234.374 142.4 234.872 141.846 235.232C141.292 235.592 140.628 235.869 139.88 236.035V236.09Z" fill="white"/>
<path d="M164.108 228.867L155.635 212.566L158.709 210.96L165.658 224.356L170.033 222.086L163.083 208.691L166.157 207.086L173.106 220.481L177.481 218.212L170.531 204.816L173.605 203.211L182.077 219.513L164.108 228.84V228.867Z" fill="white"/>
<path d="M194.646 210.101L182.159 196.622L184.706 194.27L190.576 200.608L190.715 200.47L189.663 189.676L192.791 186.77L192.93 186.908L193.871 198.394L205.472 199.778L205.611 199.916L202.399 202.905L191.767 201.604L191.628 201.743L197.194 207.748L194.646 210.101Z" fill="white"/>
<path d="M214.333 189.456L198.938 179.381L200.848 176.475L208.767 181.651L211.619 183.754L211.73 183.588L205.195 169.833L207.106 166.927L222.5 177.001L220.59 179.907L212.837 174.842L209.985 172.739L209.875 172.905L216.243 186.55L214.333 189.456Z" fill="white"/>
<path d="M13.1794 121.123L0 120.763L0.0830604 118.051L10.2168 114.48V114.37L0.304569 110.218L0.387629 107.506L13.5671 107.866L13.5117 109.858L6.06366 109.637L3.73784 109.471V109.582L13.4286 113.705L13.3733 115.311L3.48866 118.881V118.992L5.81444 118.936L13.2625 119.158L13.2071 121.15L13.1794 121.123Z" fill="white"/>
<path d="M14.5908 100.117L2.85107 92.3403L3.37715 90.0985L17.3318 88.1611L16.8335 90.3199L7.03193 91.51L5.45374 91.6484V91.7591L6.78275 92.5894L15.0891 97.931L14.5908 100.09V100.117ZM11.822 97.0454L10.133 95.9937L10.7975 93.143L12.6249 93.5581L11.822 97.0454ZM12.6249 93.5304L10.7975 93.1153L11.4897 90.1262L13.4555 89.9048L12.6249 93.5304Z" fill="white"/>
<path d="M22.3999 75.5949C22.0122 76.4805 21.4862 77.2555 20.8493 77.8644C20.1848 78.5009 19.4649 78.9715 18.662 79.3036C17.859 79.6357 16.973 79.7741 16.087 79.7741C15.201 79.7741 14.2873 79.5527 13.3736 79.1929C12.4599 78.8054 11.7123 78.2795 11.0755 77.643C10.4387 77.0064 9.96798 76.2591 9.63573 75.4565C9.30347 74.6539 9.16504 73.7959 9.16504 72.8826C9.16504 71.9692 9.35887 71.0836 9.7465 70.1979C10.0234 69.5614 10.3556 69.0078 10.7433 68.5373C11.1309 68.0668 11.5739 67.6793 12.0723 67.3472C12.5707 67.0151 13.0967 66.766 13.6782 66.5723L14.3981 68.4266C13.955 68.565 13.5674 68.7311 13.2075 68.9525C12.8475 69.1739 12.543 69.4506 12.2661 69.7828C11.9892 70.1149 11.7677 70.5024 11.5739 70.9452C11.2139 71.7478 11.1032 72.5781 11.1862 73.4084C11.2693 74.2387 11.5739 75.0137 12.0723 75.7056C12.5707 76.3975 13.2905 76.9511 14.2319 77.3385C15.1456 77.726 16.0593 77.8921 16.8899 77.7814C17.7483 77.6706 18.4959 77.3662 19.188 76.8403C19.8526 76.3145 20.3786 75.6779 20.7109 74.8476C21.0155 74.128 21.1539 73.4084 21.0985 72.6888C21.0431 71.9969 20.8493 71.305 20.4894 70.6408L22.3445 69.8658C22.6213 70.4193 22.8152 71.0282 22.9259 71.6648C23.0367 72.3014 23.0644 72.9379 22.9813 73.6022C22.8983 74.2664 22.7321 74.9306 22.4275 75.6226L22.3999 75.5949Z" fill="white"/>
<path d="M18.2743 58.24L16.6685 57.1883L21.7907 49.3281L23.3966 50.3798L18.2743 58.24ZM29.7371 61.3122L19.6034 54.6974L20.7109 53.0091L30.8447 59.6239L29.7371 61.3122Z" fill="white"/>
<path d="M37.9053 50.1046L28.1592 41.248L33.5306 35.3252L34.9427 36.5983L30.928 40.9989L37.8499 47.2816L41.8647 42.8809L43.2768 44.1541L37.9053 50.0769V50.1046ZM34.472 45.5102L33.06 44.2371L37.2962 39.5874L38.7083 40.8605L34.472 45.5102Z" fill="white"/>
<path d="M49.6716 38.2586L41.4482 27.9629L44.9923 25.1398C45.6291 24.6417 46.2936 24.3372 47.0135 24.1711C47.7334 24.0328 48.4256 24.0881 49.1178 24.3095C49.81 24.5309 50.3914 24.9738 50.8898 25.6103C51.3882 26.2192 51.6651 26.8835 51.7481 27.6031C51.8312 28.3227 51.7204 29.0146 51.4159 29.6788C51.1113 30.3431 50.6683 30.9243 50.0315 31.4225L47.3457 33.5536L46.1552 32.059L48.8686 29.9002C49.2562 29.5958 49.5054 29.2637 49.6162 28.9039C49.7546 28.5441 49.7823 28.1843 49.7269 27.7968C49.6715 27.437 49.5331 27.1049 49.3116 26.8281C49.0901 26.5513 48.8132 26.3299 48.481 26.1916C48.1487 26.0532 47.7888 25.9978 47.4011 26.0532C47.0135 26.1085 46.6259 26.2746 46.2659 26.5514L44.2724 28.1566L51.2775 36.9578L49.6992 38.2309L49.6716 38.2586Z" fill="white"/>
<path d="M69.0531 25.4723C68.1948 25.9428 67.3364 26.2196 66.4227 26.3026C65.509 26.3856 64.6507 26.3026 63.8201 26.0535C62.9895 25.8044 62.2142 25.3892 61.4943 24.808C60.7744 24.2268 60.193 23.5349 59.75 22.6769C59.2793 21.8189 59.0024 20.9333 58.9193 20.02C58.8363 19.1066 58.9193 18.2486 59.1685 17.4183C59.4177 16.588 59.833 15.8131 60.3868 15.0935C60.9682 14.4016 61.6604 13.7927 62.5188 13.3499C63.1279 13.0177 63.737 12.7963 64.3185 12.6579C64.9276 12.5196 65.509 12.4919 66.0905 12.5472C66.6719 12.6026 67.2534 12.7133 67.8348 12.9347L67.2534 14.8167C66.8381 14.6507 66.3951 14.54 65.9798 14.4846C65.5644 14.4293 65.1491 14.4846 64.7338 14.54C64.3185 14.5953 63.8755 14.7891 63.4601 15.0105C62.6849 15.4256 62.0758 16.0068 61.6051 16.6987C61.1621 17.4183 60.9128 18.1933 60.8852 19.0513C60.8575 19.9093 61.079 20.7672 61.5497 21.6806C62.0204 22.5662 62.6295 23.2305 63.3771 23.6733C64.1247 24.1161 64.8999 24.3375 65.7583 24.3652C66.5889 24.3652 67.4195 24.1715 68.1948 23.7563C68.887 23.3688 69.4407 22.8983 69.8284 22.3171C70.216 21.7359 70.4929 21.0717 70.6313 20.3244L72.5695 20.8503C72.431 21.4592 72.2372 22.068 71.905 22.6216C71.6004 23.2028 71.2128 23.701 70.7421 24.1991C70.2714 24.6697 69.7176 25.0848 69.0808 25.4446L69.0531 25.4723Z" fill="white"/>
<path d="M81.2361 19.5511L77.166 7.01353L79.1042 6.37696L81.07 12.4382H81.1808L84.1988 4.71636L86.6076 3.94141V4.05211L83.3958 12.023L90.9269 16.2852V16.3959L88.435 17.2262L81.4023 13.1578H81.2915L83.1466 18.9422L81.2085 19.5788L81.2361 19.5511Z" fill="white"/>
<path d="M97.7936 14.8163L100.978 1.08862L103.248 0.78418L109.921 13.1834L107.706 13.4878L103.165 4.71428L102.473 3.27509H102.362L102.058 4.85266L99.9533 14.5118L97.7383 14.8163H97.7936ZM99.7041 11.163L100.119 9.22559L103.027 8.83812L103.276 10.6925L99.7041 11.163ZM103.248 10.6925L102.999 8.83812L106.017 8.42296L106.931 10.1943L103.248 10.6925Z" fill="white"/>
<path d="M117.009 12.9909V12.8802L121.383 7.0958L123.515 7.34489L119.307 13.074L117.009 12.9909ZM122.214 6.15479L125.481 6.29317L125.398 8.14751L122.685 8.03681C121.882 8.00913 121.19 7.87075 120.608 7.62165C120.027 7.37256 119.528 7.06812 119.113 6.68065C118.725 6.29317 118.421 5.85034 118.227 5.32448C118.033 4.8263 117.95 4.30044 117.978 3.74691C118.006 2.99964 118.227 2.30772 118.615 1.75418C119.002 1.17297 119.528 0.730143 120.193 0.425698C120.857 0.121254 121.577 -0.0448066 122.38 0.0105469L126.838 0.204284L126.312 13.3784L124.318 13.2954L124.789 2.03095L122.325 1.92024C121.882 1.92024 121.467 1.9756 121.134 2.16933C120.802 2.36307 120.553 2.61216 120.359 2.91661C120.165 3.22105 120.054 3.58085 120.054 3.94065C120.054 4.3558 120.138 4.7156 120.331 5.04772C120.525 5.37984 120.802 5.6566 121.134 5.85034C121.467 6.04408 121.854 6.15479 122.27 6.18246L122.214 6.15479Z" fill="white"/>
<path d="M146.109 16.8937L150.207 4.38379L152.118 5.02035L150.124 11.0816H150.235L157.212 6.68096L159.621 7.48359V7.59429L152.256 12.1333L155.828 19.9935V20.1042L153.281 19.2739L150.013 11.8565H149.903L148.02 17.5579L146.109 16.9214V16.8937Z" fill="white"/>
<path d="M163.054 23.314L169.2 11.6621L176.261 15.3708L175.375 17.0591L170.086 14.2914L165.739 22.5667L171.028 25.3344L170.142 27.0227L163.081 23.314H163.054ZM166.653 18.8581L167.539 17.1698L173.104 20.1035L172.218 21.7918L166.653 18.8581Z" fill="white"/>
<path d="M177.451 31.7281L185.397 21.2109L189.024 23.9509C189.661 24.4214 190.132 25.0027 190.464 25.6669C190.769 26.3311 190.907 27.0231 190.852 27.7427C190.796 28.4622 190.519 29.1265 190.049 29.7631C189.578 30.3996 188.997 30.8424 188.332 31.0915C187.64 31.3406 186.948 31.4237 186.228 31.2853C185.508 31.1469 184.816 30.8701 184.179 30.3719L181.438 28.2962L182.601 26.774L185.369 28.8774C185.757 29.1542 186.145 29.3202 186.532 29.3756C186.92 29.4033 187.28 29.3756 187.612 29.2095C187.944 29.0435 188.221 28.8497 188.443 28.5453C188.664 28.2685 188.803 27.9364 188.83 27.5766C188.858 27.2168 188.83 26.857 188.692 26.4972C188.554 26.1374 188.304 25.8053 187.917 25.5285L185.868 23.9786L179.084 32.9736L177.478 31.7558L177.451 31.7281Z" fill="white"/>
<path d="M188.971 40.8889L201.929 35.3535L203.507 37.0141L197.443 49.7177L195.893 48.1125L200.295 39.2559L201.043 37.8444L200.959 37.7614L199.52 38.4533L190.493 42.4664L188.943 40.8612L188.971 40.8889ZM193.041 40.2523L194.868 39.422L196.889 41.5254L195.533 42.8262L193.041 40.2246V40.2523ZM195.533 42.8262L196.889 41.5254L198.994 43.7396L198.108 45.5109L195.533 42.8262Z" fill="white"/>
<path d="M202.343 55.8626L213.446 48.7773L214.913 51.0745L208.517 59.7097L208.573 59.7927L219.122 57.6616L220.589 59.9587L209.486 67.044L208.406 65.3557L214.692 61.3426L216.713 60.1802L216.657 60.0971L206.33 62.1175L205.471 60.7614L211.674 52.2646L211.618 52.1816L209.708 53.5377L203.423 57.5509L202.343 55.8626Z" fill="white"/>
<path d="M213.39 75.1536L225.684 70.4209L226.404 72.3029L219.426 74.9876L217.018 75.7902V75.9009L228.674 78.1981L229.394 80.0801L217.101 84.8128L216.381 82.9308L223.33 80.2461L225.739 79.4435V79.3328L214.11 77.0356L213.363 75.1259L213.39 75.1536Z" fill="white"/>
<path d="M219.565 93.6406L232.523 91.2051L232.91 93.1978L226.625 94.3879V94.4986L233.907 98.4564L234.378 100.947H234.267L226.764 96.7404L221.586 103.66H221.475L220.977 101.086L225.905 94.637V94.5263L219.953 95.6334L219.565 93.6406Z" fill="white"/>
<path d="M222.112 111.521L235.291 111.3V113.32L227.843 113.431L225.296 113.348V113.459L235.402 119.631V121.623L222.25 121.845V119.852L229.643 119.741L232.19 119.824V119.714L222.112 113.569V111.521Z" fill="white"/>
<path d="M9.30276 150.876C11.7341 150.876 13.7051 148.906 13.7051 146.476C13.7051 144.045 11.7341 142.075 9.30276 142.075C6.87139 142.075 4.90039 144.045 4.90039 146.476C4.90039 148.906 6.87139 150.876 9.30276 150.876Z" fill="#FFBF00"/>
<path d="M227.29 150.876C229.721 150.876 231.692 148.906 231.692 146.476C231.692 144.045 229.721 142.075 227.29 142.075C224.858 142.075 222.887 144.045 222.887 146.476C222.887 148.906 224.858 150.876 227.29 150.876Z" fill="#FFBF00"/>
</svg>
