<svg width="183" height="173" viewBox="0 0 183 173" fill="none" xmlns="http://www.w3.org/2000/svg">
<path d="M149.435 85.0398C162.502 81.2553 185.788 71.6767 181.834 55.6343C178.249 41.233 153.891 41.9363 141.897 44.1802C135.095 45.4529 128.629 47.8978 122.296 50.4096C127.02 39.6924 130.739 29.511 129.935 17.6885C128.897 2.18192 116.098 -4.58335 101.255 3.32064C88.1549 10.2869 79.6782 26.0948 75.423 39.0225L71.503 33.0945C64.1655 21.4395 45.7044 10.0189 32.1685 20.4348C17.9624 31.353 27.5448 52.8545 35.8205 64.543H26.2046C25.3335 64.543 21.9495 65.3803 20.8438 65.6482C0.606958 70.538 -9.34396 89.4942 11.7305 101.049C20.4418 105.805 30.9288 107.647 40.9132 108.484L34.5473 117.527C31.2973 121.78 29.2535 126.636 28.4829 131.459C26.1376 145.726 34.7148 159.391 55.0857 153.898C63.2273 151.721 66.0083 148.171 72.1731 143.851C72.5417 143.583 72.6422 143.214 73.2787 143.348C72.9437 155.238 78.4385 172.553 94.1857 172.553C112.982 172.553 120.789 148.004 120.52 133.971C132.113 143.114 157.108 152.257 167.628 137.353C168.968 135.478 169.906 133.468 170.543 131.459C174.631 118.163 164.579 102.556 154.662 93.5801C151.881 91.0683 148.631 89.0923 145.716 86.7814C145.549 86.6474 144.711 86.5134 145.247 86.0111C145.415 85.8771 148.765 85.3077 149.536 85.1068L149.435 85.0398Z" fill="#FFBF00"/>
<path d="M105.777 69.1992C105.408 77.5386 114.689 84.7727 123.233 80.2514C125.176 98.7052 98.4725 100.38 97.1323 82.7298C96.6633 76.8018 99.8462 71.4431 105.81 69.1992H105.777Z" fill="white"/>
<path d="M61.4511 76.2347C61.2165 85.2104 70.3298 91.1049 79.2421 86.9519C80.8168 104.367 56.6599 106.578 53.8455 91.7747C52.6393 85.5118 54.9846 79.0479 61.4511 76.2012V76.2347Z" fill="white"/>
<path d="M79.2411 86.9533C70.2954 91.0728 61.1821 85.1783 61.4501 76.2361C70.5969 72.2171 78.4705 78.3795 79.2411 86.9533Z" fill="black"/>
<path d="M123.2 80.2519C114.656 84.7397 105.375 77.5056 105.744 69.1997C115.192 65.6496 122.295 71.7116 123.2 80.2519Z" fill="black"/>
<path d="M96.5644 107.145C100.685 105.973 100.551 110.863 99.6133 113.308C97.3685 119.001 89.9304 119.169 86.3454 114.447C85.0052 112.705 83.8661 108.385 87.0825 108.083C90.5335 107.782 89.5954 112.203 92.2088 112.705C96.1288 113.442 94.152 107.815 96.5644 107.145Z" fill="black"/>
</svg>
