<svg width="112" height="112" viewBox="0 0 112 112" fill="none" xmlns="http://www.w3.org/2000/svg">
<path d="M54.4831 21.4509C54.3101 21.7282 54.5269 22.6788 54.4477 23.0874C55.6589 23.0374 57.7228 22.879 57.9813 24.453C58.3608 26.7629 58.0564 31.6808 58.0022 34.2492C57.9918 34.7412 57.7896 35.1977 57.777 35.6918C57.7374 37.1866 57.825 38.6918 57.7854 40.1844C60.7666 40.2407 68.0507 41.2914 69.3557 44.3539C70.6191 47.3143 67.4857 49.1864 67.8464 52.1175C68.132 54.4295 70.6128 56.7499 71.6448 58.9493C73.9547 63.8672 73.6336 69.2354 71.5447 74.1637C74.9762 74.6683 82.9274 77.0219 84.2721 80.5139C84.9225 82.2005 84.9538 88.192 84.1366 89.7806C82.375 93.2079 74.8595 95.3281 71.2987 96.1224C68.9784 96.6394 66.6101 96.9188 64.271 97.3295C64.8944 101.847 61.6046 102.008 61.957 97.515C55.4254 98.1404 48.8856 97.9591 42.3582 97.515C42.3311 98.4948 42.6063 99.6352 41.7432 100.346C40.9364 101.011 40.7822 100.031 40.2631 100.111C39.7982 100.181 38.7433 101.019 38.6224 101.551C38.8267 102.762 44.4326 103.619 45.5917 103.767C50.7306 104.422 57.8855 104.384 62.9222 103.171C68.9826 101.712 64.6171 100.765 64.4587 100.113C64.615 99.8645 65.526 98.5532 65.6219 98.5449C66.3433 98.4823 67.665 99.679 68.0069 100.323C68.9513 102.095 68.0548 103.348 66.4767 104.224C61.2961 107.097 42.8565 107.236 37.9115 103.942C35.0491 102.035 36.9671 99.2433 39.4417 98.2384C39.6814 98.1404 40.2256 98.1696 40.2631 98.13C40.3027 98.0883 40.3069 97.1564 40.2631 97.1085C40.0609 96.8937 35.2493 96.3309 34.4341 96.1641C30.4168 95.3344 21.1939 93.0307 19.9034 88.5965C19.5052 87.2226 19.7575 82.4485 20.1015 80.9913C20.9666 77.3451 27.0562 75.327 30.2667 74.4785C30.8796 74.3159 34.4028 73.7385 34.4299 73.4403C32.3389 68.1034 33.275 62.1619 36.3542 57.4253C37.8302 55.1529 40.2151 53.5143 39.5584 50.3893C39.2895 49.1176 38.1012 47.9439 37.9803 46.5429C37.5508 41.527 45.625 40.4096 49.2421 40.1865C49.2275 37.3012 49.2546 34.4118 49.2504 31.5244C49.2504 30.6342 49.0169 29.6377 49.0232 28.6037C49.0294 27.5696 49.1149 25.339 49.2546 24.4571C49.5736 22.4412 52.1107 23.5523 52.3692 23.298C52.6298 21.0006 52.2483 21.7407 51.0141 20.7942C49.1378 19.3557 48.5979 17.3627 48.8272 15.0653C48.9982 13.3517 51.504 8.63179 52.5381 7.10159C53.3761 5.86325 54.0495 5.84657 54.9626 7.05156C57.4539 10.3392 59.9327 17.0146 56.4345 20.3793C56.0071 20.79 54.5478 21.3613 54.4894 21.4551L54.4831 21.4509ZM54.4519 19.3328C54.7604 19.6747 55.636 18.084 55.7423 17.8109C56.841 15.009 55.2378 11.4024 53.618 9.11754C52.3233 12.4677 48.8085 15.993 52.2608 19.3307C52.5714 17.5024 54.4185 17.3523 54.4498 19.3307L54.4519 19.3328ZM51.3227 43.7244H55.7006L55.9112 25.4766C55.9529 25.1117 55.9216 25.1597 55.5943 25.1618C54.8167 25.1701 53.9911 25.3848 53.0843 25.3869C52.4839 25.389 51.356 24.872 51.1454 25.5141L51.3227 43.7244ZM49.24 42.4735C47.1386 42.4381 40.6738 43.372 40.1609 45.8049C39.9233 46.9307 41.2721 48.3963 41.5952 49.3886C43.1942 54.2878 38.6808 57.1501 36.8253 61.0194C34.0735 66.7566 35.9101 75.6189 41.1032 79.484C45.2519 82.5715 60.581 82.6278 64.7693 79.582C70.1438 75.671 72.4703 66.9464 69.9791 60.8234C68.1549 56.3433 64.0021 54.3712 66.1723 48.8778C66.3537 48.4171 66.7269 48.1544 66.7498 47.6854C60.7832 50.4185 53.1009 50.8146 46.6945 49.4991C45.4437 49.2427 41.0469 48.3629 42.7752 46.5367C44.2262 46.4408 45.7772 47.1433 47.3199 47.4144C52.1232 48.2566 58.4296 48.144 63.1578 46.9036C66.877 45.9279 68.9513 44.871 63.877 43.3637C61.8756 42.7695 59.6596 42.4276 57.5769 42.4693C57.0682 43.7515 58.4671 43.9912 58.5943 44.4895C59.0967 46.447 54.4185 45.634 53.5116 45.6382C52.4651 45.6423 48.5437 46.4345 48.3936 44.8564C48.3165 44.0371 49.1775 44.0517 49.2421 43.7827C49.3317 43.4137 49.1858 42.8738 49.2379 42.4672L49.24 42.4735ZM35.464 75.6272C31.9554 76.4757 26.0388 77.2659 23.3787 79.8885C21.0459 82.19 23.9124 84.181 25.9554 85.2484C36.5877 90.8084 60.3559 90.7521 71.8845 87.9481C75.1534 87.1538 86.828 83.5159 80.0234 79.3381C77.2799 77.6536 73.717 76.8051 70.5962 76.1172C69.2202 77.7433 67.7817 80.2304 66.0222 81.4583C61.0001 84.9648 44.5702 84.9982 39.6627 81.3374C38.9122 80.7787 37.5821 79.0045 36.9775 78.1852C36.4167 77.4264 35.7809 76.5174 35.4661 75.6231L35.464 75.6272ZM21.9277 84.7939V88.0252C21.9277 88.2024 23.1369 89.4533 23.4058 89.6743C32.3077 97.0918 61.0626 96.3121 71.9658 93.6561C75.9665 92.6805 84.024 90.8063 82.4917 85.2108C79.5105 87.9106 75.6225 89.2219 71.7574 90.1121C59.8493 92.8535 45.1122 92.6596 33.225 89.864C29.2952 88.9404 24.8422 87.6854 21.9298 84.7939H21.9277Z" fill="#151515"/>
<path d="M87.9673 43.0501C87.6046 43.417 86.729 43.4149 86.335 43.0063C85.77 42.4226 85.2696 39.8041 84.6838 39.4476C83.5977 38.7868 79.5387 40.4712 80.137 37.8278C80.3476 36.9021 82.6199 35.6763 82.9243 34.561C83.2057 33.529 81.3628 30.8168 82.6074 29.8724C83.8333 28.9426 85.8909 31.1462 87.2668 31.0086C88.6428 30.871 90.9381 27.5562 92.0701 29.1448C92.7872 30.1517 91.4718 32.8765 91.8178 34.1878C92.1639 35.4991 94.7156 36.3747 94.232 37.9508C93.8609 39.1558 90.8651 38.5032 89.7852 39.3434C88.7053 40.1835 88.5177 42.4934 87.9673 43.0501ZM90.1 31.634C89.0931 31.98 88.4134 33.0266 87.2835 33.1058C86.2203 33.1788 85.3968 32.4387 84.4754 32.0509C84.2731 32.741 84.7964 33.2726 84.8798 33.8355C85.1279 35.497 84.1647 36.1412 83.2224 37.2607C85.4844 36.9626 86.4559 37.8778 86.9771 39.973C87.7922 39.3559 87.763 38.2051 88.6511 37.5839C89.4329 37.0356 90.4356 37.0085 91.3509 37.0523C91.6114 36.8208 90.3147 35.768 90.1313 35.4595C89.3391 34.119 89.9416 33.0391 90.1 31.634Z" fill="#151515"/>
<path d="M30.2671 34.5509C30.3651 34.6489 30.0733 34.8824 30.0587 34.6551C30.0545 34.5822 30.2213 34.505 30.2671 34.5509Z" fill="#151515"/>
<path d="M29.6425 35.5932C29.5299 35.7204 29.5466 36.0039 29.2819 36.2249C27.2325 37.9218 24.0283 37.1067 24.4494 34.0484C24.7621 31.7677 27.687 30.8129 29.6404 31.4237C29.8197 28.6656 27.9268 26.1597 24.9623 26.6434C24.1242 26.7789 24.0304 27.3605 23.5926 27.5711C22.4209 28.1298 21.4453 26.5349 23.1944 25.2904C27.0136 22.5698 31.5438 26.7747 31.7273 30.9046C31.7439 31.2965 31.4354 31.7614 31.5042 32.1158C31.525 32.2242 32.7321 32.9518 32.9823 33.1936C35.0504 35.1783 35.3297 38.2554 34.1039 40.7863C33.714 41.591 32.2109 43.1754 31.7669 41.7015C31.4208 40.5507 33.2179 39.2269 32.9281 37.2109C32.8072 36.3687 31.7773 34.1443 30.8058 34.1255C30.6182 34.1213 30.6578 34.4632 30.4743 34.555C30.4222 34.58 30.3326 34.5362 30.2659 34.555C30.5786 33.5397 29.211 33.1957 28.4334 33.1373C26.0338 32.956 25.7232 35.5077 27.3993 35.1491C27.7371 35.0762 28.0289 34.6759 28.448 34.7926C28.6981 34.8614 29.2693 35.4806 29.6404 35.5994L29.6425 35.5932Z" fill="#151515"/>
<path d="M87.8062 60.6116C89.9993 60.7513 92.3801 63.2322 91.0292 65.3982C89.3384 68.1084 85.8778 65.3607 85.711 62.9132C83.8118 62.9361 82.1898 65.2752 81.9876 66.9889C81.8896 67.8228 82.4796 69.4426 81.406 69.7595C79.9321 70.1931 80.0113 67.8436 80.0947 66.9743C80.3261 64.556 81.9376 62.2398 84.1182 61.1995C84.5414 60.9973 85.6901 60.8264 85.834 60.6221C85.9778 60.4178 85.9716 59.6547 86.1258 59.2461C87.2016 56.3942 90.0952 53.5256 93.3683 54.9453C95.6969 55.9543 96.0722 59.7006 93.781 58.9126C92.9534 58.629 93.7185 56.8904 92.0611 56.659C89.8971 56.3567 88.1418 58.677 87.8041 60.6096L87.8062 60.6116ZM87.5998 62.6985C87.2954 63.5282 88.7985 65.367 89.4927 64.4788C90.0869 63.7179 88.3753 62.4233 87.5998 62.6985Z" fill="#151515"/>
<path d="M19.3786 48.5615C23.4897 48.0049 24.0859 54.4342 19.733 54.576C15.9929 54.699 15.7803 49.0493 19.3786 48.5615ZM19.5829 50.4273C18.2111 50.6942 18.3404 52.6747 19.7413 52.6747C21.3883 52.6747 21.1548 50.123 19.5829 50.4273Z" fill="#151515"/>
<path d="M74.4162 16.2462C77.3015 15.9147 77.5141 20.3427 74.7644 20.7826C71.4037 21.3205 71.4079 16.5923 74.4162 16.2462ZM74.3953 17.9057C73.8408 18.0495 73.6136 18.9773 74.1556 19.1253C75.0958 19.3796 75.5149 17.6159 74.3953 17.9057Z" fill="#151515"/>
<path d="M26.4629 64.8323C26.7944 65.1596 26.734 65.7349 26.4921 66.1102C26.2503 66.4855 24.3323 68.097 23.7986 68.6307C23.2649 69.1644 22.529 70.7321 21.5992 69.5896C20.6694 68.4472 22.0495 67.2235 22.8626 66.4417C23.5464 65.7829 25.5853 63.9608 26.465 64.8302L26.4629 64.8323Z" fill="#151515"/>
<path d="M68.574 30.2263C71.9137 29.3444 71.7678 34.8815 68.7824 34.304C66.3871 33.8412 66.6768 30.7266 68.574 30.2263Z" fill="#151515"/>
<path d="M30.945 15.6321C31.2702 15.3006 31.8498 15.3611 32.2229 15.6029C32.5773 15.8322 35.177 19.1094 35.2375 19.4847C35.3334 20.0789 34.7392 20.8064 34.1555 20.7501C33.455 20.6834 30.6948 17.2603 30.6761 16.5223C30.6698 16.2763 30.7719 15.8093 30.9429 15.6342L30.945 15.6321Z" fill="#151515"/>
<path d="M78.1579 54.2944C77.3448 54.9511 76.0439 54.5216 76.4275 53.3062C76.5276 52.9914 78.6207 50.4418 78.9438 50.1853C80.1029 49.2597 81.1537 50.0456 80.5616 51.3882C80.4594 51.6175 78.3872 54.1109 78.1579 54.2964V54.2944Z" fill="#151515"/>
<path d="M69.7229 78.385C70.759 77.3905 75.7936 79.7567 73.7214 82.6962C71.7263 85.5273 62.4033 87.4953 59.1323 87.0992C58.0858 86.9721 58.1713 86.0944 58.9885 85.6837C61.4527 85.4919 71.2447 83.895 72.2767 81.6643C73.1064 79.8714 68.3407 79.7109 69.7229 78.385Z" fill="#151515"/>
<path d="M35.8688 79.1395C35.6269 79.5293 31.9119 80.0505 33.0898 81.6579C34.2677 83.2673 38.8187 84.0679 40.6804 84.6995C41.5685 85.9087 41.0181 86.4069 39.5984 86.1985C37.6742 85.917 33.0669 84.4181 31.8473 82.9025C30.1003 80.7281 31.8723 78.7747 34.078 78.0784C35.0057 77.7865 36.4921 78.1326 35.8688 79.1416V79.1395Z" fill="#151515"/>
</svg>
