<svg width="112" height="112" viewBox="0 0 112 112" fill="none" xmlns="http://www.w3.org/2000/svg">
<path d="M100.879 30.3147C101.214 30.5155 103.033 30.1663 103.43 31.0861C104.124 32.6996 102.673 33.2268 102.673 33.4322C102.673 33.5052 103.421 34.1762 103.627 34.53C107.098 40.5345 102.556 48.1116 98.567 52.6099C97.702 53.5844 96.6956 53.6962 96.7914 55.2869C96.8165 55.7137 97.5081 57.9275 97.7659 58.1922C98.0444 58.4775 99.0805 58.9089 99.5803 59.3448C105.868 64.8427 107.504 73.6156 108.143 81.592C108.376 84.4813 108.753 89.5935 108.385 92.3277C108.184 93.8203 106.434 93.8089 106.142 92.4943C105.804 90.9743 106.187 88.3064 106.101 86.6015C105.904 82.7354 105.56 78.6525 104.841 74.8526C103.862 69.6696 101.933 64.1512 97.5332 60.9286C95.0775 62.9598 91.9622 65.913 88.6028 66.1686C87.8702 66.2257 86.9847 65.7967 86.5784 66.1801C86.0672 66.6616 84.3327 71.3995 84.0657 72.3467C83.5088 74.3345 82.7534 78.0066 82.605 80.0264C82.5845 80.3094 82.5206 80.5856 82.6164 80.8663C82.7785 81.3478 86.866 83.1576 87.3498 82.8176C87.4343 82.7582 88.039 81.0489 88.0573 80.8823C88.1258 80.2569 87.8314 79.8187 87.8291 79.3052C87.8268 78.7917 89.7142 73.7502 90.068 73.0998C90.4856 72.3353 91.4807 71.6186 92.0558 72.5726C92.5944 73.465 90.5974 77.5342 90.3418 78.7347L98.6697 81.9366C98.9641 81.0625 100.103 77.0047 101.548 78.8305C102.13 79.5677 100.632 83.7556 100.121 84.5315C99.9523 84.7872 99.5552 84.8785 99.4639 85.0633C97.8299 88.336 96.408 92.9302 92.6902 94.4342C88.071 96.3011 82.6073 93.2223 78.5883 91.0656C79.8093 94.9523 78.9032 96.9926 75.3681 98.7933C66.8553 103.132 48.3578 102.977 39.7492 98.864C36.5723 97.3463 34.904 95.4589 36.0862 91.6932C36.2596 91.1386 37.4213 89.9838 37.1657 89.694C36.9466 89.4452 32.1082 92.6563 31.4327 92.9735C25.3802 95.8355 21.2265 94.9591 17.349 89.5388C16.6141 88.5118 14.325 84.4905 14.3227 83.411C14.3227 82.3954 15.6921 82.053 16.4087 82.7217C16.8355 83.1188 17.8579 85.8918 18.3326 86.7293C23.3239 95.5434 29.5202 91.8028 36.0953 87.3684C36.853 86.8571 39.384 84.7004 39.8884 84.543C40.7853 84.2645 42.481 84.3284 43.5651 84.1116C44.2931 83.9655 47.9858 82.8655 48.3532 82.5095C48.6544 82.2151 48.5814 81.8431 48.5746 81.4779C47.3695 81.6902 43.1748 82.8016 44.0489 80.2592C44.4186 79.1843 49.0995 79.6795 49.9485 78.8556C50.1539 78.6571 50.2999 78.2394 50.1744 78.0568C49.6404 77.2786 42.958 79.7092 43.8229 76.845C44.1676 75.6993 48.5974 75.7792 49.8252 75.535C50.1196 75.4756 50.4916 75.3387 50.4026 74.9758C50.1311 73.8484 44.8796 74.5513 43.912 74.3916C43.2524 74.282 42.9352 73.6635 42.4125 73.805C41.9812 73.9191 40.589 75.3684 40.2695 75.7929C39.3863 76.9636 39.0713 78.7575 38.163 79.6202C37.1269 80.6038 32.3593 82.9591 30.8256 83.694C29.3992 84.3786 26.0101 86.5034 24.9739 84.6571C24.4787 83.7738 23.7119 81.6765 23.2988 80.6266C23.0089 79.8895 21.6213 76.2311 21.7423 75.7655C21.9751 74.8845 23.0934 74.4806 23.7164 75.1881L26.6856 82.8313C27.1717 83.1805 30.7571 80.7088 31.6632 80.7704C31.4669 76.4113 30.2756 72.1824 28.4795 68.2455C25.3984 69.2177 22.1143 66.7849 19.9416 64.813C18.0177 63.0671 18.4718 61.748 15.9659 64.2721C9.84497 70.4364 9.81302 82.19 9.33375 90.2759C9.29951 90.8625 9.16486 92.8092 9.05303 93.1904C8.78373 94.0941 7.34364 94.2128 6.92599 93.3478C6.66809 92.8115 6.76851 88.6738 6.80274 87.7472C7.13595 79.1774 8.90925 65.5137 16.8423 60.5863C17.1778 60.3786 17.7506 60.3489 17.9355 60.196C18.0245 60.123 18.7001 58.6464 18.6795 58.5505C18.6339 58.3383 16.4041 57.6491 15.9317 57.4117C9.85182 54.3581 8.33413 46.6236 10.694 40.6281C2.96858 39.7997 1.30255 29.8719 5.90582 24.5429C9.64185 20.2181 17.2189 19.7045 20.7358 24.5338C21.0006 24.8966 21.2151 25.7799 21.3246 25.8095C21.6921 25.9077 26.2657 24.6981 27.457 24.641C33.683 24.3421 44.4894 28.2949 45.1512 35.4931C45.2539 36.6114 44.9161 37.5631 44.9276 38.4577C44.939 39.3523 45.3475 40.4204 45.3931 41.4155C45.4456 42.568 45.0805 43.8986 45.1626 44.8206C45.3794 47.2238 49.2866 49.9944 45.4547 51.9959C45.0074 52.2287 43.9873 52.4204 43.8389 52.546C43.6906 52.6715 42.8325 55.3942 42.4536 56.0675C40.9405 58.7559 37.8937 61.0793 34.767 61.3896C33.8815 61.4786 31.3026 61.1797 30.7731 61.5038C30.5198 61.6589 29.2509 64.6008 29.2121 64.991C29.155 65.5593 29.9538 66.2211 30.2733 66.8008C32.4003 70.6692 33.2539 74.8663 33.9728 79.1934C36.675 78.6959 36.9329 76.7354 38.2132 74.8777C39.2699 73.344 40.4156 72.1755 42.2254 71.589C42.7069 71.4338 43.5605 71.5091 43.7454 71.395C43.8435 71.3356 44.4232 69.7381 44.6103 69.4071C45.4502 67.91 46.9587 66.107 46.7008 64.3018C46.5548 63.2816 45.6077 61.8278 45.6054 60.8214C45.5985 58.1968 49.0196 57.4756 51.0394 57.1219C54.7412 56.4714 66.3897 55.9648 68.8911 58.9933C70.4247 60.8487 68.7724 62.2386 68.4871 64.0713C68.1356 66.333 69.5073 67.5175 70.4567 69.2953C70.7374 69.8202 71.0158 71.1165 71.2851 71.4338C71.527 71.7168 72.6431 71.8263 73.1543 72.0751C74.2954 72.6274 75.4867 74.193 76.0778 75.3136C76.4978 76.1078 76.8994 77.8446 77.2258 78.2737C77.648 78.8282 79.6404 79.3783 80.2931 79.8826C81.0326 75.1127 81.8747 70.1261 84.1341 65.8058C85.1748 63.8179 86.5967 63.5852 85.2045 60.9378C84.5609 59.7145 82.4681 60.3877 81.0965 60.2531C77.4609 59.8948 74.0512 56.8799 72.7229 53.5638C72.3806 52.708 71.9812 50.2751 71.6389 49.8552C71.1801 49.2869 69.7469 49.3235 68.923 48.0066C67.2387 45.3204 70.6917 43.6635 71.114 41.6026C71.365 40.3794 71.2281 38.5992 71.4609 37.1568C71.7302 35.4931 72.8576 33.414 72.9877 32.2751C73.1315 31.0222 72.3555 30.1002 72.8256 28.4775C73.1634 27.3158 74.4415 26.5444 74.5556 26.088C74.7404 25.3554 72.6339 21.1949 75.2151 20.606C76.6073 20.2888 79.928 21.0739 81.5529 21.2268C88.3951 21.8681 95.6868 22.3063 100.016 28.5528C100.274 28.9248 100.785 30.2713 100.87 30.3215L100.879 30.3147ZM101.071 32.4052C98.5967 32.7955 99.1923 31.7183 98.2931 30.2736C93.9363 23.2831 83.1596 24.2553 76.1965 22.8175C75.6259 24.0203 77.7233 26.0309 77.5339 26.7635C77.1847 28.1055 74.0786 27.6513 74.8272 30.1207C76.8469 27.8567 77.486 30.4813 79.0516 31.7137C80.4711 32.8297 82.6461 33.7243 84.4012 34.1237C85.6085 34.3976 88.443 34.4684 89.2897 34.9385C90.4719 35.5958 89.8078 37.2253 89.8899 38.4486C89.9881 39.9001 90.5609 41.4589 90.8006 42.9012C96.2209 39.3843 100.128 45.3752 96.7252 50.3139C96.4674 50.6882 95.1916 51.4916 95.8192 52.0302C96.1433 52.3086 96.4149 51.6422 96.5472 51.5075C100.034 47.9678 104.069 41.1416 101.794 36.1275C101.157 34.724 99.4365 33.9183 101.066 32.4075L101.071 32.4052ZM41.0477 31.9465C38.9937 29.7259 33.6419 27.4208 30.4308 27.1583C26.2999 26.8183 20.7495 27.8384 17.7598 30.9103C16.9633 31.7297 16.4064 33.7335 15.247 33.455C13.1314 32.9461 16.7191 28.8518 17.5361 28.1739C18.6202 27.2747 19.9211 27.5144 18.9077 26.1268C16.2124 22.4318 10.5776 22.765 7.73162 26.129C4.21925 30.285 5.33298 37.7799 11.3284 38.517C11.9834 38.5969 13.2729 38.0218 13.6244 39.1789C13.88 40.0256 13.2546 40.3428 13.0241 41.007C11.9583 44.0948 11.4174 46.2721 12.4034 49.5174C13.4806 53.064 17.5772 57.2382 21.6099 55.9853C22.7236 55.6384 23.422 54.0408 23.8511 53.8925C26.042 53.1302 25.8229 55.312 24.7138 56.5787C23.6046 57.8453 21.7309 58.0165 21.19 58.5323C21.0804 58.6373 19.8708 61.1226 19.8823 61.2733C19.9416 62.0081 25.5011 66.4905 26.8933 66.1755C26.8956 64.5414 27.5666 62.7613 28.2969 61.3006C30.0679 57.7586 30.5426 59.347 33.8655 59.1097C36.3486 58.9317 38.0968 57.8796 39.6761 56.0195C39.0029 55.7708 38.2634 55.9967 37.5605 55.8552C36.3463 55.6087 33.3612 53.1097 34.7488 52.0051C36.0588 50.9621 36.6362 53.1439 37.5377 53.5958C38.1698 53.913 38.7609 53.7441 39.222 53.9655C39.9614 54.3216 39.4182 55.7457 40.0185 55.4467C41.3969 54.3489 41.4266 51.2131 42.7891 50.4577C43.2661 50.193 44.3547 50.1359 44.5989 49.7502C44.907 49.2641 43.985 48.2211 43.7454 47.6163C42.3463 44.0789 43.8595 40.7308 41.8328 36.9765C41.6366 36.6137 40.0595 34.3383 39.6807 34.6806C39.2105 37.4992 35.9013 40.6372 33.3406 41.6939C32.7062 41.9564 30.538 42.3535 30.376 42.4927C30.1774 42.6639 30.0747 43.5151 29.8328 43.8917C29.3535 44.6357 28.5707 45.277 28.1713 46.1078C26.9937 46.8655 26.2885 45.6627 25.193 45.6125C22.0093 45.4687 22.0093 50.1359 24.6088 51.0077C25.3573 51.2588 27.2607 51.0945 26.8636 52.546C26.4072 54.2211 23.4813 53.1416 22.4863 52.4455C18.522 49.6726 20.4665 42.7118 25.6518 43.3485C26.8819 43.4992 27.3543 44.5307 28.0915 42.6068C28.3288 41.986 28.2124 41.1895 28.7328 40.7377C29.1025 40.4159 31.597 40.0941 32.6149 39.5988C34.3973 38.7339 36.6704 36.4881 37.5217 34.692C38.1402 33.3866 38.1607 30.5612 40.3654 32.1724C40.3905 32.1907 40.322 32.4919 40.4224 32.5627C41.0728 33.0214 41.8191 33.3227 42.4171 33.9982C42.4627 33.3729 42.0542 32.7818 41.7027 32.3094C41.454 31.9761 41.0888 31.9876 41.05 31.9442L41.0477 31.9465ZM87.8359 36.9674C83.4517 36.8077 79.0379 35.2763 76.0801 31.951C74.583 33.7837 73.7522 36.3444 73.4601 38.6836C73.2615 40.2835 73.597 41.2489 72.9489 42.9651C72.5426 44.0355 70.9337 45.7084 70.9245 46.441C70.9086 47.5433 72.1866 47.274 72.9352 47.646C74.0193 48.1823 74.3251 51.2884 74.8546 52.5733C76.1166 55.627 78.8759 57.7723 82.233 57.9731C83.4586 58.0462 85.8937 57.325 86.6263 58.2584C87.0622 58.8153 87.7424 62.3459 88.0733 63.3181C88.1509 63.5464 88.1281 63.7769 88.4202 63.8887C91.2114 63.1447 93.5096 61.3463 95.5682 59.4064C95.2395 58.0986 94.7283 56.8389 94.5023 55.4992C94.4088 54.9469 94.6575 54.5269 94.5845 54.0728C94.5571 53.9016 93.8976 52.546 93.7903 52.4045C93.5963 52.1534 91.1064 52.4478 91.1064 51.0055C91.1064 49.6886 92.8705 50.0926 93.6054 49.9305C96.4491 49.3075 96.7846 42.8602 92.6902 44.2249C91.7386 44.5422 90.7207 46.7696 89.5522 45.4048C88.3837 44.0401 87.6123 38.7453 87.8336 36.9674H87.8359ZM46.0687 72.1139H49.8344C50.5122 72.1139 52.1874 73.3052 52.4749 74.0355C53.1915 75.8499 52.0299 76.3246 52.0481 76.9773C52.0641 77.5023 52.5434 77.8628 52.4133 78.7849C52.2056 80.2501 51.0257 80.7476 50.9002 81.1675C50.7746 81.5875 50.9116 82.1786 50.8066 82.6715C50.4232 84.4768 48.7435 84.7598 47.2942 85.328C47.1299 85.392 46.8218 85.2778 46.9838 85.6886C47.2212 86.2957 48.8553 87.8887 49.4897 88.2059C52.6347 89.7738 62.955 89.8788 65.9127 87.964C66.1136 87.8339 67.4647 86.5034 67.5194 86.3733C67.6769 85.9967 67.3757 86.0652 67.2342 85.983C65.8602 85.1797 64.1874 85.1866 63.1855 83.6392C62.5464 82.6556 62.9299 82.0074 62.6857 81.1721C62.4985 80.5262 61.3848 79.8872 61.3962 78.3855C61.403 77.7077 62.0238 77.2033 62.0352 76.7925C62.0489 76.2265 61.4236 75.8111 61.6427 74.565C62.1721 71.5365 66.8941 72.0774 69.1216 72.3398C68.1174 69.2862 65.6206 67.0473 66.2094 63.6103C66.5883 61.3988 68.8226 60.4927 65.292 59.6255C61.1543 58.6099 53.8694 58.635 49.7591 59.7122C46.7807 60.4927 48.1364 61.1934 48.6978 63.2086C49.8252 67.2482 46.9656 68.6129 46.0687 72.1139ZM97.419 83.9861L90.4765 81.2634C89.5887 82.1603 89.1824 85.3509 87.9386 85.5791C86.9961 85.7503 84.6431 84.6183 83.6435 84.1801C82.4247 83.6438 76.2125 80.7111 75.6123 80.1154C75.0759 79.5814 74.373 76.756 73.645 75.6924C73.4464 75.4026 72.1798 74.0332 71.9698 73.9442C71.842 73.8895 71.753 74.4806 71.5362 74.6495C70.9953 75.0671 68.6993 74.4486 67.8618 74.403C66.6408 74.3368 64.7648 74.1245 63.8701 74.9735C63.594 76.1283 68.9139 75.8773 69.594 76.7765C69.8519 77.1166 69.9409 77.9541 69.7013 78.2965C69.1353 79.1112 64.2421 77.5023 63.8724 78.0568C62.6195 79.942 69.117 79.344 69.5369 80.7225C70.3563 83.4178 65.3057 81.4117 65.0113 81.7039C64.904 81.8111 65.1185 82.5985 65.2988 82.7856C65.7028 83.2033 70.2604 84.6502 71.1117 84.8442C72.0451 85.0587 73.0949 84.8465 74.1219 85.2573C75.149 85.6681 76.9086 87.2794 78.0383 87.9595C81.3042 89.9268 87.683 93.6491 91.4829 92.314C94.2376 91.3463 96.3806 86.5445 97.419 83.9884V83.9861ZM44.9276 86.266C43.7499 86.5924 42.0405 86.282 40.9884 86.5491C40.6506 86.6335 38.2155 88.4798 38.5373 88.7742C40.6735 88.2311 42.6385 86.7933 44.9276 86.9484V86.266ZM39.9066 90.1481C39.4776 90.7141 41.7667 91.7777 42.1067 91.9374C48.8302 95.112 66.2368 95.0207 72.9694 91.8256C73.5765 91.538 76.1235 90.0956 75.9477 89.3676C75.8656 89.0276 72.0177 86.3984 71.1733 87.1789C71.2235 87.5418 71.6731 87.4962 71.9652 87.8659C72.1547 88.1032 72.513 88.7879 72.4879 89.08C72.3395 90.8625 68.6172 92.0173 68.8888 90.7187C69.149 90.2828 71.1642 89.4064 70.7146 88.7788C70.6575 88.6989 69.044 88.2584 68.8157 88.3041C68.7108 88.3246 67.912 89.5319 67.3665 89.8788C63.4776 92.3596 52.0847 92.1816 47.9926 90.1573C47.0569 89.694 45.7925 87.6491 45.263 87.6947C45.1672 87.7039 43.8047 88.8016 43.7841 88.8952C43.6541 89.4931 47.3034 90.6297 45.2151 91.2482C43.5742 91.7343 42.8051 89.4133 42.2642 89.2535C41.6891 89.0823 40.573 90.1595 39.9043 90.1504L39.9066 90.1481ZM76.4202 92.1999C73.2479 94.6122 69.222 95.516 65.3216 96.0477C60.2916 96.7301 42.9443 96.8214 39.4639 92.9872C39.2014 92.6974 39.1717 92.1131 38.8773 91.9762C37.9644 91.5494 38.0215 93.6445 38.0785 94.1466C38.2223 95.4087 39.2653 95.977 40.2832 96.5042C48.0633 100.525 65.5658 100.368 73.613 97.0336C76.0208 96.0363 77.3536 95.0892 76.4224 92.1999H76.4202Z" fill="#151515"/>
<path d="M52.1859 19.9108C54.6941 19.6894 56.7116 21.319 58.0581 23.2771C61.0775 20.5293 66.4019 20.7028 67.6389 25.0984C68.885 29.5236 64.583 33.4148 61.3377 35.6948C60.1235 36.5461 56.8051 38.8511 55.4289 38.2212C51.5697 34.9325 45.6564 29.1379 47.5575 23.5122C48.233 21.5175 50.0817 20.098 52.1859 19.9131V19.9108ZM56.8462 26.1893C56.5586 25.8971 56.2483 24.4525 55.5453 23.7244C53.9295 22.0538 50.9489 21.57 49.9014 24.0303C48.37 27.6248 52.4438 32.5065 55.0752 34.6929C56.8576 36.1718 57.2296 35.4209 59.0554 34.3277C61.4997 32.8625 65.4251 29.9321 65.4799 26.8123C65.5279 24.1307 63.1041 23.1265 60.8219 24.2265C59.6899 24.772 58.0786 27.4422 56.8439 26.1893H56.8462Z" fill="#151515"/>
<path d="M46.866 9.66211C47.8519 9.66211 49.3445 13.4712 49.4518 14.3247C49.559 15.1783 48.8949 15.9953 48.0413 15.4909C47.1878 14.9866 44.5655 9.66439 46.866 9.66211Z" fill="#151515"/>
<path d="M53.8843 15.0034C53.2795 14.3895 54.2312 9.84784 54.893 9.61961C55.459 9.42562 56.2076 9.46898 56.34 10.1536C56.5499 11.2468 55.7124 16.8566 53.8866 15.0057L53.8843 15.0034Z" fill="#151515"/>
<path d="M40.2992 15.7812C41.1505 15.5301 44.5716 17.7781 44.6515 18.6317C44.8728 21.0257 40.3928 18.1592 39.8953 17.4723C39.4822 16.904 39.6146 15.9843 40.3015 15.7812H40.2992Z" fill="#151515"/>
<path d="M39.2643 46.7336C39.0704 46.6172 38.9494 45.6906 37.9612 45.7317C37.4043 45.7545 35.6881 48.3677 35.3914 46.3821C35.049 44.068 38.7508 42.8241 40.1362 44.6111C41.0605 45.8047 40.4876 47.4662 39.2621 46.7336H39.2643Z" fill="#151515"/>
<path d="M50.335 60.9785L57.8253 61.4053C59.3978 61.4007 64.3434 60.4696 65.3636 61.3756C67.1483 62.9549 62.5473 63.3543 61.6983 63.4411C59.4252 63.6716 56.2209 63.6602 53.9433 63.4411C52.5169 63.3041 48.0231 63.0896 50.335 60.9808V60.9785Z" fill="#151515"/>
<path d="M81.3856 44.6728C80.4384 45.6404 79.756 43.8808 79.2927 43.5727C78.0307 42.7306 77.7089 44.2141 76.9831 44.2848C74.9428 44.4811 76.5837 41.0235 78.9869 41.3521C80.2353 41.5233 82.4947 43.5431 81.3856 44.6728Z" fill="#151515"/>
<path d="M76.0041 52.5228C76.2483 52.1302 77.9143 52.1393 78.4506 51.8951C79.1079 51.5962 80.6461 49.2386 81.1756 51.053C81.7439 52.9975 78.0649 54.7776 76.4194 53.972C75.9995 53.7666 75.7781 52.8811 76.0018 52.5228H76.0041Z" fill="#151515"/>
</svg>
