<svg width="112" height="112" viewBox="0 0 112 112" fill="none" xmlns="http://www.w3.org/2000/svg">
<path d="M71.3699 54.3949C76.0141 55.1273 84.2053 57.9002 85.7376 62.8704C86.3742 64.9388 86.4213 70.1238 85.7891 72.1751C84.051 77.8111 75.2211 80.5303 70.0861 81.7825C69.2181 81.993 65.0411 82.6159 64.7175 82.8457C64.1388 83.2538 64.891 86.9052 64.2738 87.9856C63.2601 89.7641 56.357 90.9175 54.3295 91.1215C49.7924 91.579 41.0633 91.1366 37.2228 88.5097C35.4589 87.3026 36.4126 84.8433 35.9583 83.0111C30.8211 82.0038 25.4332 81.1403 20.6453 78.9194C13.6801 75.6911 11.8948 72.2137 13.35 64.4427C14.3294 59.219 20.7289 56.5041 25.3367 55.1917C26.0418 54.992 29.7067 54.4078 29.7795 54.0577C29.8095 53.9138 29.1752 52.2298 29.0766 51.7788C27.7735 45.6938 28.6158 40.4251 31.972 35.21C33.0243 33.5733 35.7225 30.9271 35.9904 29.1422C36.5498 25.4135 31.1512 22.6792 35.5725 18.6262C40.3025 14.2896 59.4281 13.8987 64.4024 17.8787C68.4701 21.1328 63.9952 23.9615 64.8718 27.5055C65.3711 29.5267 67.405 30.6135 68.6909 32.0526C73.648 37.5963 73.9717 47.7085 71.3677 54.3927L71.3699 54.3949ZM63.3715 20.0953C62.1799 18.682 57.2528 17.8465 55.4011 17.6704C51.3805 17.2859 41.2005 17.636 37.8657 19.8526C34.5309 22.0692 37.2549 23.6823 38.0007 26.0879C39.6317 31.3502 35.7611 33.3929 33.4744 37.1452C29.1987 44.1602 30.4911 53.3166 35.3711 59.655C37.4585 62.3657 38.9159 62.8103 42.2206 63.5298C47.9579 64.7777 54.7946 64.8078 60.4397 63.0981C69.5932 60.323 72.2571 46.9632 69.7175 38.7669C68.2515 34.0394 66.0698 33.7387 63.6566 30.4503C62.3 28.6031 62.0642 26.0879 63.0093 24.0045C57.0106 25.8946 50.0989 26.3328 43.8687 25.3684C42.6964 25.1858 38.6051 24.651 38.6008 23.1496C38.5965 21.2423 41.3955 22.5912 42.3964 22.763C47.9214 23.7145 54.3574 23.8004 59.8396 22.5439C60.654 22.3571 64.5331 21.4721 63.3737 20.0996L63.3715 20.0953ZM30.8318 56.5793C29.6509 55.8361 21.1469 59.1503 19.6552 60.0223C17.1198 61.5022 14.7238 63.648 16.9398 66.5261C21.164 72.0118 38.8323 74.4776 45.549 74.7976C54.7924 75.2401 72.9258 73.6163 80.6605 68.3218C81.6142 67.6688 83.6223 65.7293 83.7402 64.5694C84.0467 61.586 78.483 58.884 76.1963 58.042C75.1054 57.6403 72.0278 56.5879 71.0205 56.5471C70.7741 56.5363 70.5662 56.5234 70.4054 56.7533C68.9909 59.073 67.3128 62.3141 65.0089 63.8048C59.1602 67.5893 41.7363 67.9416 36.0226 63.9379C35.2639 63.4053 33.2922 60.6388 32.915 60.6259C30.9261 61.2337 26.1061 62.7609 29.5073 65.0978C37.0942 70.3107 63.6566 70.2484 71.3056 65.1751C75.429 62.4409 69.2031 61.4228 68.8281 60.8106C68.7316 60.6517 68.7723 60.3123 68.8388 60.1297C69.5632 58.0978 74.0895 60.875 74.4925 62.5397C75.0347 64.782 73.6909 66.0257 71.9421 67.1018C63.0115 72.5917 37.8486 72.7099 28.9523 67.1555C23.6051 63.8176 27.317 59.4703 32.1477 59.3329C32.0234 58.9377 30.9583 56.6588 30.8297 56.5771L30.8318 56.5793ZM84.0124 67.9287C80.519 71.4598 75.9477 73.292 71.2027 74.5248C59.1602 77.6543 45.3989 77.8068 33.1829 75.5923C27.0663 74.484 19.6938 72.5488 15.326 67.9287C13.8108 74.1726 21.7619 77.0744 26.4148 78.5092C39.6853 82.603 69.3124 83.46 80.8727 74.978C83.6416 72.9461 83.9138 71.3138 84.0145 67.9265L84.0124 67.9287ZM62.3685 83.1765C55.4268 83.9326 48.4465 84.1968 41.4748 83.6039C40.4697 83.518 39.3745 83.2904 38.3651 83.1765V86.8279C39.801 86.9546 41.0869 87.6355 42.4757 87.9706C47.7736 89.2529 53.9245 89.2872 59.1988 87.8374C59.6789 87.7064 62.3685 86.8709 62.3685 86.5036V83.1744V83.1765Z" fill="#151515"/>
<path d="M98.6635 56.836C98.7685 56.9743 99.2957 57.0105 99.591 57.3169C100.91 58.683 103.023 73.38 103.397 76.1696C103.878 79.7656 104.758 84.7852 104.718 88.2919C104.666 92.9731 97.6791 94.9052 95.2948 90.4346C94.1508 88.2898 93.3524 81.4019 92.9565 78.6655C92.169 73.2076 91.1431 66.4666 90.9615 61.03C90.9418 60.4108 90.8696 59.5235 91.0053 58.949C91.1409 58.3744 91.7271 58.1468 91.8299 57.6233C91.9174 57.1786 91.9371 53.7826 91.843 53.4081C91.8015 53.2464 89.835 52.6271 89.6403 51.0377C89.5637 50.3993 89.6075 49.3758 89.6709 48.7183C90.2462 42.8838 92.3987 36.4428 93.3546 30.5976C93.8074 28.9592 95.3408 27.8931 96.9398 29.04C98.5388 30.1869 101.076 37.1854 101.732 39.2728C103.1 43.6264 103.859 45.4925 100.361 49.1162C99.5844 49.9205 97.4276 51.0887 97.5216 52.2824C97.5479 52.6059 98.5169 56.6488 98.6591 56.836H98.6635ZM95.9882 31.3509C95.4545 31.2828 95.6426 31.353 95.5311 31.6466C95.3145 32.219 95.1461 33.0638 94.9995 33.683C93.7308 39.0494 93.0811 44.6052 91.8255 49.9822C91.7905 51.7164 94.0633 51.5611 95.2183 50.9185C96.3207 49.0566 100.302 46.7096 100.567 44.6286C100.75 43.1987 99.241 39.1132 98.6744 37.5706C97.8935 35.4427 96.9354 33.4064 95.9861 31.3509H95.9882ZM94.0217 53.4783C93.8796 53.6166 94.0217 56.8679 94.0217 57.4148C94.0217 57.9276 96.4017 57.4276 96.4432 57.1765C96.1807 56.6552 95.7061 53.3996 95.5529 53.2655C95.4961 53.2144 94.0764 53.4251 94.0217 53.4783ZM97.8148 90.0069C99.4028 91.5007 102.122 90.5006 102.345 88.2812C102.669 85.0597 101.291 77.7867 100.772 74.2566C100.308 71.0925 99.8053 67.8604 99.2038 64.7175C98.985 63.5749 98.5038 60.4385 98.1341 59.5873C97.8388 58.9107 96.1851 59.7448 95.4217 59.8405C94.7436 59.9256 94.0458 59.832 93.3655 59.8618C93.5208 63.8664 93.9802 67.8944 94.4636 71.882C94.9667 76.0334 95.5136 80.2869 96.2464 84.4043C96.4848 85.7491 96.8895 89.1345 97.8148 90.0069Z" fill="#151515"/>
<path d="M34.9 85.9413C34.8112 86.0957 32.7688 87.042 32.2923 87.5229C30.2434 89.5899 32.8034 91.1208 34.5772 91.9746C42.2638 95.6717 57.8275 95.7975 65.6245 92.418C67.8618 91.4473 71.0131 89.6186 68.0568 87.2141C66.9803 86.3383 65.2542 86.3516 66.2548 84.6773C67.0042 83.4221 68.3123 84.45 69.2285 85.1361C73.9175 88.6458 71.1712 92.654 66.9219 94.6217C58.4469 98.5483 40.2301 98.5439 32.1948 93.5187C28.0949 90.9554 28.0689 87.1237 32.275 84.7015C32.6107 84.5074 33.4402 83.9956 33.7542 84C34.365 84.0133 35.214 85.3986 34.9021 85.9413H34.9Z" fill="#151515"/>
<path d="M82.1306 81.2238C82.9522 81.0416 83.7327 81.9031 83.3316 82.786C83.0823 83.3327 81.0054 84.502 80.3853 84.7837C79.5615 85.1553 75.9908 86.6677 76.1664 84.6582C76.2618 83.5576 78.2802 83.2854 79.0845 82.8901C79.7263 82.5753 81.7187 81.3161 82.1306 81.2238Z" fill="#151515"/>
<path d="M13.7195 54.7192C14.3393 55.3764 13.8598 56.4653 12.9937 56.5564C12.5337 56.6063 11.0606 56.0857 10.4018 55.9903C9.50978 55.8601 7.41683 56.3568 7.28508 54.9751C7.08852 52.9036 12.9872 53.9426 13.7173 54.717L13.7195 54.7192Z" fill="#151515"/>
<path d="M12.7326 47.6025C13.65 47.486 17.6109 50.9191 17.3472 51.8727C17.1981 52.411 16.3977 52.8242 15.7784 52.5551C15.5422 52.4534 12.1432 49.4568 12.001 49.2555C11.4826 48.518 11.8335 47.7169 12.7303 47.6025H12.7326Z" fill="#151515"/>
</svg>
